<svg width="172" height="39" viewBox="0 0 172 39" fill="none" xmlns="http://www.w3.org/2000/svg">
<path d="M0.875 30V0.90909H8.77273V23.6364H20.5341V30H0.875ZM47.3675 30V35.5682H27.6516V30H47.3675ZM65.9445 30.7955C63.3024 30.786 61.0202 30.1752 59.0979 28.9631C57.1755 27.7509 55.6935 26.0038 54.6518 23.7216C53.6102 21.4394 53.0941 18.7027 53.1035 15.5114C53.113 12.3106 53.6339 9.5928 54.666 7.35795C55.7077 5.12311 57.185 3.42329 59.0979 2.25852C61.0202 1.09375 63.3024 0.511363 65.9445 0.511363C68.5865 0.511363 70.8687 1.09848 72.7911 2.27273C74.7134 3.4375 76.1954 5.13731 77.2371 7.37216C78.2787 9.60701 78.7948 12.3201 78.7854 15.5114C78.7854 18.7216 78.2645 21.4678 77.2229 23.75C76.1812 26.0322 74.6992 27.7794 72.7768 28.9915C70.864 30.1941 68.5865 30.7955 65.9445 30.7955ZM65.9445 24.375C67.3081 24.375 68.4255 23.6648 69.2967 22.2443C70.1774 20.8144 70.613 18.5701 70.6035 15.5114C70.6035 13.5133 70.4047 11.8797 70.007 10.6108C69.6092 9.34186 69.06 8.40436 68.3592 7.7983C67.6585 7.18277 66.8536 6.875 65.9445 6.875C64.5808 6.875 63.4681 7.56629 62.6064 8.94886C61.7446 10.3314 61.3043 12.5189 61.2854 15.5114C61.2759 17.5473 61.47 19.2235 61.8678 20.5398C62.2655 21.8466 62.8147 22.8125 63.5155 23.4375C64.2257 24.0625 65.0354 24.375 65.9445 24.375ZM98.8609 38.6364C96.6734 38.6364 94.7984 38.3239 93.2359 37.6989C91.6829 37.0833 90.4755 36.2311 89.6138 35.142C88.7615 34.0625 88.2833 32.822 88.1791 31.4205H95.7359C95.8117 31.8845 96.0011 32.2585 96.3041 32.5426C96.6072 32.8267 96.9954 33.0303 97.4689 33.1534C97.9518 33.286 98.4916 33.3523 99.0882 33.3523C100.101 33.3523 100.94 33.1061 101.602 32.6136C102.275 32.1212 102.611 31.2311 102.611 29.9432V26.25H102.384C102.1 26.9886 101.664 27.6184 101.077 28.1392C100.49 28.6506 99.7842 29.0436 98.9604 29.3182C98.1365 29.5833 97.2322 29.7159 96.2473 29.7159C94.6943 29.7159 93.2643 29.3561 91.9575 28.6364C90.6602 27.9167 89.6185 26.7756 88.8325 25.2131C88.056 23.6506 87.6678 21.6098 87.6678 19.0909C87.6678 16.4583 88.075 14.3182 88.8893 12.6705C89.7132 11.0227 90.7738 9.81534 92.0712 9.0483C93.378 8.28125 94.7511 7.89773 96.1905 7.89773C97.27 7.89773 98.217 8.08712 99.0314 8.46591C99.8458 8.83523 100.528 9.33239 101.077 9.95739C101.626 10.5729 102.043 11.25 102.327 11.9886H102.497V8.18182H110.338V29.9432C110.338 31.7898 109.86 33.357 108.904 34.6449C107.957 35.9422 106.621 36.9318 104.898 37.6136C103.174 38.2955 101.162 38.6364 98.8609 38.6364ZM99.145 24.1477C99.8647 24.1477 100.48 23.9489 100.992 23.5511C101.512 23.1439 101.91 22.5663 102.185 21.8182C102.469 21.0606 102.611 20.1515 102.611 19.0909C102.611 18.0114 102.469 17.0881 102.185 16.321C101.91 15.5445 101.512 14.9527 100.992 14.5455C100.48 14.1288 99.8647 13.9205 99.145 13.9205C98.4253 13.9205 97.8098 14.1288 97.2984 14.5455C96.7965 14.9527 96.4083 15.5445 96.1337 16.321C95.8685 17.0881 95.7359 18.0114 95.7359 19.0909C95.7359 20.1705 95.8685 21.089 96.1337 21.8466C96.4083 22.5947 96.7965 23.1676 97.2984 23.5653C97.8098 23.9536 98.4253 24.1477 99.145 24.1477ZM126.206 30.3409C124.814 30.3409 123.583 30.1136 122.512 29.6591C121.452 29.1951 120.619 28.4943 120.012 27.5568C119.406 26.6193 119.103 25.4261 119.103 23.9773C119.103 22.7841 119.307 21.7661 119.714 20.9233C120.121 20.071 120.69 19.375 121.419 18.8352C122.148 18.2955 122.995 17.8835 123.961 17.5994C124.937 17.3153 125.988 17.1307 127.115 17.0455C128.336 16.9508 129.316 16.8371 130.055 16.7045C130.803 16.5625 131.343 16.3684 131.674 16.1222C132.006 15.8665 132.172 15.5303 132.172 15.1136V15.0568C132.172 14.4886 131.954 14.053 131.518 13.75C131.083 13.447 130.524 13.2955 129.842 13.2955C129.094 13.2955 128.483 13.4612 128.01 13.7926C127.546 14.1146 127.266 14.6117 127.172 15.2841H119.956C120.05 13.9583 120.472 12.7367 121.22 11.6193C121.977 10.4924 123.081 9.5928 124.53 8.92045C125.978 8.23864 127.787 7.89773 129.956 7.89773C131.518 7.89773 132.92 8.08239 134.16 8.4517C135.401 8.81155 136.457 9.31818 137.328 9.97159C138.199 10.6155 138.862 11.3731 139.316 12.2443C139.78 13.1061 140.012 14.0436 140.012 15.0568V30H132.683V26.9318H132.512C132.077 27.7462 131.547 28.4044 130.922 28.9062C130.306 29.4081 129.601 29.7727 128.805 30C128.019 30.2273 127.153 30.3409 126.206 30.3409ZM128.762 25.3977C129.359 25.3977 129.918 25.2746 130.439 25.0284C130.969 24.7822 131.4 24.4271 131.731 23.9631C132.063 23.4991 132.228 22.9356 132.228 22.2727V20.4545C132.02 20.5398 131.798 20.6203 131.561 20.696C131.334 20.7718 131.087 20.8428 130.822 20.9091C130.566 20.9754 130.292 21.0369 129.998 21.0938C129.714 21.1506 129.416 21.2027 129.103 21.25C128.497 21.3447 128 21.5009 127.612 21.7188C127.233 21.9271 126.949 22.1875 126.76 22.5C126.58 22.803 126.49 23.1439 126.49 23.5227C126.49 24.1288 126.703 24.5928 127.129 24.9148C127.555 25.2367 128.1 25.3977 128.762 25.3977ZM157.4 17.7273V30H149.559V8.18182H157.002V12.3295H157.229C157.703 10.947 158.536 9.86269 159.729 9.0767C160.932 8.29072 162.334 7.89773 163.934 7.89773C165.478 7.89773 166.817 8.25284 167.954 8.96307C169.1 9.66383 169.985 10.6297 170.61 11.8608C171.245 13.0919 171.557 14.4981 171.548 16.0795V30H163.707V17.7273C163.716 16.6477 163.442 15.8002 162.883 15.1847C162.334 14.5691 161.567 14.2614 160.582 14.2614C159.938 14.2614 159.374 14.4034 158.891 14.6875C158.418 14.9621 158.053 15.3598 157.798 15.8807C157.542 16.392 157.409 17.0076 157.4 17.7273Z" fill="white"/>
</svg>
